<?xml version="1.0" encoding="UTF-8" standalone="no"?>
<!-- Created with Inkscape (http://www.inkscape.org/) -->

<svg
   width="16in"
   height="12in"
   viewBox="0 0 406.39998 304.8"
   version="1.1"
   id="svg5"
   sodipodi:docname="ChoreBox.svg"
   inkscape:version="1.2 (dc2aeda, 2022-05-15)"
   xmlns:inkscape="http://www.inkscape.org/namespaces/inkscape"
   xmlns:sodipodi="http://sodipodi.sourceforge.net/DTD/sodipodi-0.dtd"
   xmlns="http://www.w3.org/2000/svg"
   xmlns:svg="http://www.w3.org/2000/svg">
  <sodipodi:namedview
     id="namedview7"
     pagecolor="#ffffff"
     bordercolor="#000000"
     borderopacity="0.25"
     inkscape:showpageshadow="2"
     inkscape:pageopacity="0.0"
     inkscape:pagecheckerboard="0"
     inkscape:deskcolor="#d1d1d1"
     inkscape:document-units="mm"
     showgrid="false"
     inkscape:zoom="0.4204826"
     inkscape:cx="562.44896"
     inkscape:cy="550.55786"
     inkscape:window-width="1440"
     inkscape:window-height="855"
     inkscape:window-x="0"
     inkscape:window-y="23"
     inkscape:window-maximized="0"
     inkscape:current-layer="layer1" />
  <defs
     id="defs2" />
  <g
     inkscape:label="Layer 1"
     inkscape:groupmode="layer"
     id="layer1"
     transform="translate(162.85466,26.106417)">
    <g
       id="g1865"
       transform="translate(-121.98325,13.589108)">
      <path
         id="path1861"
         style="fill:#0000ff;fill-opacity:1;stroke:none;stroke-width:0;stroke-dasharray:none"
         d="m 30.438969,31.17019 v 3.810104 h -3.047876 v 6.35 h 3.047876 v 6.35 h -3.047876 v 6.35 h 3.047876 v 6.35 h -3.047876 v 6.35 h 3.047876 v 6.35 h -3.047876 v 6.35 h 3.047876 v 6.35 h -3.047876 v 6.35 h 3.047876 v 6.35 h -3.047876 v 6.349996 h 3.047876 v 6.35 h -3.047876 v 6.35 h 3.047876 v 6.35 h -3.047876 v 6.35 h 3.047876 v 6.35 h -3.047876 v 6.35 h 3.047876 v 6.35 h -3.047876 v 6.35 h 3.047876 v 6.35 h -3.047876 v 6.35 h 3.047876 v 6.35 h -3.047876 v 6.35 h 3.047876 v 6.35 h -3.047876 v 6.35 h 3.047876 v 6.35 h -3.047876 v 6.35 h 3.047876 v 6.35 h -3.047876 v 6.35 h 3.047876 v 6.35 h -3.047876 v 6.35 h 3.047876 v 6.35 h -3.047876 v 6.35 h 3.047876 v 6.35 h -3.047876 v 0.76223 3.04788 h 6.35 v -3.04788 h 6.35 v 3.04788 h 6.35 v -3.04788 h 6.35 v 3.04788 h 6.35 v -3.04788 h 6.35 v 3.04788 h 6.35 v -3.04788 h 6.35 v 3.04788 h 6.35 v -3.04788 h 6.35 v 3.04788 h 6.35 v -3.04788 h 6.349997 v 3.04788 h 6.35 v -3.04788 h 6.35 v 3.04788 h 6.35 v -3.04788 h 6.35 v 3.04788 h 6.35 v -3.04788 h 6.35 v 3.04788 h 6.35 v -3.04788 h 6.35 v 3.04788 h 3.30213 v -3.81011 h 3.04787 v -6.35 h -3.04787 v -6.35 h 3.04787 v -6.35 h -3.04787 v -6.35 h 3.04787 v -6.35 h -3.04787 v -6.35 h 3.04787 v -6.35 h -3.04787 v -6.35 h 3.04787 v -6.35 h -3.04787 v -6.35 h 3.04787 v -6.35 h -3.04787 v -6.35 h 3.04787 v -6.35 h -3.04787 v -6.35 h 3.04787 v -6.35 h -3.04787 v -6.35 h 3.04787 v -6.35 h -3.04787 v -6.35 h 3.04787 v -6.35 h -3.04787 v -6.35 h 3.04787 v -6.35 h -3.04787 v -6.35 h 3.04787 v -6.35 h -3.04787 v -6.349996 h 3.04787 v -6.35 h -3.04787 v -6.35 h 3.04787 v -6.35 h -3.04787 v -6.35 h 3.04787 v -6.35 h -3.04787 v -6.35 h 3.04787 v -6.35 h -3.04787 v -6.35 h 3.04787 v -6.35 h -3.04787 v -6.35 h 3.04787 V 34.218066 31.17019 h -6.35 v 3.047876 h -6.35 V 31.17019 h -6.35 v 3.047876 h -6.35 V 31.17019 h -6.35 v 3.047876 h -6.35 V 31.17019 h -6.35 v 3.047876 h -6.35 V 31.17019 h -6.35 v 3.047876 H 97.241093 V 31.17019 h -6.35 v 3.047876 h -6.35 V 31.17019 h -6.35 v 3.047876 h -6.35 V 31.17019 h -6.35 v 3.047876 h -6.35 V 31.17019 h -6.35 v 3.047876 h -6.35 V 31.17019 h -6.35 v 3.047876 h -6.35 V 31.17019 Z M 58.265694,70.230339 A 15,15 0 0 1 73.265812,85.230457 15,15 0 0 1 58.265694,100.23006 15,15 0 0 1 43.266093,85.230457 15,15 0 0 1 58.265694,70.230339 Z m 0,42.699721 a 15,15 0 0 1 15.000118,15.00012 15,15 0 0 1 -15.000118,15.00011 15,15 0 0 1 -14.999601,-15.00011 15,15 0 0 1 14.999601,-15.00012 z m 0,42.70023 a 15,15 0 0 1 15.000118,15.00012 15,15 0 0 1 -15.000118,14.9996 15,15 0 0 1 -14.999601,-14.9996 15,15 0 0 1 14.999601,-15.00012 z m 0,42.69972 a 15,15 0 0 1 15.000118,15.00012 15,15 0 0 1 -15.000118,15.00012 15,15 0 0 1 -14.999601,-15.00012 15,15 0 0 1 14.999601,-15.00012 z" />
      <path
         id="path1863"
         style="font-size:16.9333px;font-family:Bernstein-Regular;-inkscape-font-specification:Bernstein-Regular;fill:#000000;stroke-width:0"
         d="m 58.347343,39.063249 c -0.822958,0 -1.752659,0.09152 -2.788977,0.274402 -1.036318,0.167638 -2.004024,0.624734 -2.903182,1.371492 -0.899158,0.746758 -1.508789,1.584937 -1.828829,2.514575 -0.32004,0.914398 -0.518079,1.623049 -0.594279,2.125969 -0.0762,0.502918 -0.114722,1.05955 -0.114722,1.669148 0,1.097278 0.145039,2.171502 0.434599,3.22306 0.3048,1.036316 0.81541,1.966017 1.53169,2.788977 0.731518,0.822958 1.668716,1.425091 2.811714,1.806091 1.142998,0.36576 2.400265,0.548287 3.771863,0.548287 0.761998,0 1.516153,-0.053 2.262911,-0.15968 0.761998,-0.09144 1.47065,-0.213471 2.125968,-0.365869 l -0.617016,-3.612183 c -0.5334,0.09144 -1.013504,0.167968 -1.440222,0.228926 -0.42672,0.04572 -0.883813,0.06821 -1.371493,0.06821 -0.487678,0 -0.97528,-0.0455 -1.46296,-0.136942 -0.487678,-0.09144 -0.967782,-0.274484 -1.440222,-0.548804 -0.457198,-0.27432 -0.815273,-0.723915 -1.074353,-1.348755 -0.25908,-0.640078 -0.411616,-1.150691 -0.457336,-1.531689 -0.03048,-0.381 -0.04548,-0.685558 -0.04548,-0.914156 0,-0.64008 0.08351,-1.280217 0.251148,-1.920297 0.16764,-0.655318 0.442206,-1.150417 0.823206,-1.485697 0.396238,-0.33528 0.815329,-0.556329 1.257287,-0.663009 0.44196,-0.121918 0.960069,-0.182934 1.554427,-0.182934 0.62484,0 1.249466,0.07601 1.874304,0.22841 0.64008,0.13716 1.143194,0.289696 1.508952,0.457336 l 0.685746,-3.908805 c -0.670558,-0.1524 -1.440223,-0.274429 -2.308903,-0.365869 -0.853438,-0.10668 -1.668607,-0.160197 -2.445845,-0.160197 z m 30.106173,0 c -0.10668,0 -0.236207,0.0075 -0.388607,0.02274 -0.13716,0 -0.297194,0.008 -0.480074,0.02325 -0.4572,0 -0.929288,0.0605 -1.416968,0.182418 -0.47244,0.121918 -1.18109,0.388989 -2.125968,0.800467 -0.929638,0.39624 -1.752822,1.097393 -2.4691,2.103231 -0.71628,0.990598 -1.150363,1.904787 -1.302763,2.742985 -0.13716,0.822958 -0.213687,1.318058 -0.228927,1.485698 -0.01524,0.16764 -0.02274,0.396186 -0.02274,0.685746 0,1.097278 0.205538,2.195029 0.617016,3.292305 0.41148,1.097278 1.044121,2.041974 1.897559,2.834453 0.853438,0.777238 1.813646,1.333352 2.880444,1.668632 1.082038,0.335278 2.202281,0.502811 3.360519,0.502811 0.914398,0 1.920108,-0.144522 3.017386,-0.434082 1.112518,-0.304798 2.118229,-0.838419 3.017387,-1.600419 0.899158,-0.777238 1.539298,-1.736929 1.920296,-2.879927 0.381,-1.142998 0.571542,-2.202226 0.571542,-3.177584 0,-0.929638 -0.137025,-1.836846 -0.411345,-2.720764 -0.259078,-0.883918 -0.754694,-1.783112 -1.486214,-2.69751 -0.731518,-0.929638 -1.752224,-1.630274 -3.062862,-2.102714 -1.310638,-0.48768 -2.606428,-0.731738 -3.886584,-0.731738 z m 44.531644,0.02274 c -1.15822,0 -2.20248,0.129527 -3.1321,0.388607 -0.92964,0.25908 -1.6688,0.678168 -2.21744,1.257288 -0.5334,0.579118 -0.90647,1.204261 -1.11983,1.874821 -0.21336,0.655318 -0.32039,1.34096 -0.32039,2.057238 0,0.54864 0.084,1.112767 0.25166,1.691887 0.16764,0.563878 0.4647,1.043982 0.89142,1.440222 0.42672,0.381 1.45544,0.800088 3.08612,1.257288 l 0.70848,0.182417 c 0.3048,0.09144 0.71639,0.21347 1.23455,0.36587 0.35055,0.137158 0.5566,0.297194 0.61753,0.480074 0.0609,0.182878 0.0909,0.335416 0.0909,0.457336 0,0.3048 -0.091,0.518351 -0.27388,0.640271 -0.18288,0.12192 -0.47244,0.182935 -0.86868,0.182935 -0.4572,0 -1.35639,-0.09152 -2.69751,-0.274402 -1.32588,-0.18288 -2.19456,-0.327919 -2.60604,-0.434599 l -0.75448,4.114994 1.44022,0.274402 c 0.50292,0.10668 1.05154,0.190188 1.6459,0.251148 0.59436,0.0762 1.21148,0.114204 1.85156,0.114204 1.20396,0 2.30119,-0.144522 3.29179,-0.434082 0.9906,-0.289558 1.76776,-0.731657 2.33164,-1.326017 0.57912,-0.609598 0.98322,-1.257234 1.21182,-1.943034 0.24384,-0.685798 0.36586,-1.348946 0.36586,-1.989026 0,-0.457198 -0.12202,-1.028307 -0.36586,-1.714107 -0.24384,-0.701038 -0.67844,-1.242157 -1.30328,-1.623157 -0.6096,-0.380998 -1.46279,-0.724079 -2.56005,-1.028877 l -0.98289,-0.29714 c -0.27432,-0.0762 -0.67093,-0.190215 -1.18907,-0.342615 -0.36576,-0.137158 -0.58681,-0.343213 -0.66301,-0.617533 -0.10668,-0.32004 -0.0302,-0.609601 0.22892,-0.868681 0.27432,-0.259078 0.74641,-0.388607 1.41697,-0.388607 0.57912,0 1.33379,0.09902 2.26343,0.29714 0.92964,0.18288 1.57727,0.342914 1.94303,0.480074 l 0.70849,-3.908805 -0.86868,-0.205673 c -0.54864,-0.121918 -1.11225,-0.220939 -1.69137,-0.297139 -0.57912,-0.0762 -1.23426,-0.114722 -1.96578,-0.114722 z m -68.625781,0.251665 v 15.773197 h 4.937683 V 48.98461 h 4.846216 v 6.126241 h 4.937683 v -15.7732 h -4.937683 v 5.920568 h -4.846216 v -5.920568 z m 33.83256,0 v 15.773197 h 4.937681 v -5.577437 h 0.93741 c 0.67056,0 1.05165,0.09902 1.14309,0.297139 0.10668,0.19812 0.40373,0.868249 0.89141,2.011247 l 1.39475,3.269051 h 5.21209 l -1.96629,-4.251937 c -0.25908,-0.533398 -0.52563,-0.99799 -0.79995,-1.39423 -0.25908,-0.39624 -0.56416,-0.762329 -0.91468,-1.097607 0.64008,-0.25908 1.12019,-0.556139 1.44023,-0.891419 0.33528,-0.33528 0.60984,-0.769363 0.8232,-1.302763 0.21336,-0.548638 0.31988,-1.135261 0.31988,-1.760099 0,-1.112518 -0.28208,-2.103234 -0.84594,-2.971912 -0.54864,-0.868678 -1.28728,-1.432806 -2.21692,-1.691886 -0.92964,-0.27432 -1.98137,-0.411344 -3.15485,-0.411344 z m 15.476061,0 v 15.773197 h 11.3161 v -3.634404 h -6.3779 v -2.469099 h 5.73763 V 45.34969 h -5.73763 v -2.217436 h 6.21771 v -3.7946 z m -10.53838,3.291788 h 0.68575 c 0.65532,0 1.20445,0.07601 1.64641,0.22841 0.4572,0.13716 0.76176,0.38122 0.91416,0.731738 0.16764,0.33528 0.25166,0.624841 0.25166,0.868681 0,0.4572 -0.10703,0.830787 -0.32039,1.120345 -0.19812,0.28956 -0.49518,0.480102 -0.89142,0.571542 -0.381,0.09144 -0.91462,0.136942 -1.60042,0.136942 h -0.68575 z m -58.94317,0.06615 c -5.786928,0 -10.445357,4.658946 -10.445357,10.445874 V 235.44971 c 0,5.78694 4.658429,10.44588 10.445357,10.44588 h 99.75877 c 5.78692,0 10.44587,-4.65894 10.44587,-10.44588 V 53.141459 c 0,-5.786928 -4.65895,-10.445874 -10.44587,-10.445874 h -4.08141 v 3.175 h 1.23249 c 5.60608,0 10.11979,4.513192 10.11979,10.119279 V 232.60131 c 0,5.60607 -4.51371,10.11928 -10.11979,10.11928 H 47.035372 c -5.606087,0 -10.119279,-4.51321 -10.119279,-10.11928 V 55.989864 c 0,-5.606087 4.513192,-10.119279 10.119279,-10.119279 h 1.233 v -3.175 z m 44.45,0.04806 c 0.48768,0 0.952789,0.114532 1.394747,0.343132 0.44196,0.228598 0.830542,0.586673 1.16582,1.074353 0.33528,0.472438 0.594334,1.066557 0.777214,1.782837 0.18288,0.701038 0.274402,1.387197 0.274402,2.057755 0,0.761998 -0.129527,1.417132 -0.388607,1.965772 -0.24384,0.533398 -0.617427,0.952489 -1.120345,1.257287 -0.48768,0.3048 -1.05129,0.487844 -1.69137,0.548804 H 88.77391 c -0.50292,0 -0.990522,-0.122029 -1.46296,-0.365869 -0.4572,-0.24384 -0.868792,-0.617427 -1.23455,-1.120345 -0.32004,-0.48768 -0.564099,-1.05129 -0.731739,-1.69137 -0.167638,-0.640078 -0.251147,-1.29573 -0.251147,-1.966288 0,-0.853438 0.129527,-1.539079 0.388607,-2.057239 0.274318,-0.579118 0.639892,-1.021217 1.09709,-1.326017 0.47244,-0.32004 0.998047,-0.480074 1.577165,-0.480074 0.10668,-0.01524 0.266714,-0.02274 0.480074,-0.02274 z M 78.266024,78.990527 v 0.558623 c 0.609597,0.06773 1.015847,0.208742 1.219047,0.42323 0.214488,0.203198 0.321944,0.592672 0.321944,1.168404 l 0.01654,7.925097 c 0,0.564443 -0.118468,0.964928 -0.355533,1.201994 -0.237066,0.237066 -0.637552,0.355534 -1.201994,0.355534 v 0.575675 l 1.439188,-0.0677 1.033012,-0.08475 0.914156,0.08475 c 0.530577,0.04515 1.044282,0.0677 1.540992,0.0677 v -0.575675 c -0.575732,0 -0.976217,-0.118468 -1.201994,-0.355534 -0.225777,-0.237066 -0.338998,-0.637551 -0.338998,-1.201994 l -0.01705,-7.925097 c 0,-0.564443 0.107458,-0.953917 0.321944,-1.168404 0.225777,-0.225775 0.632028,-0.366784 1.219047,-0.42323 v -0.558623 l -1.422135,0.08423 -1.033012,0.06821 -1.2361,-0.101803 z m 36.694396,2.878378 c -1.47882,0 -2.6981,0.49693 -3.65765,1.490348 -0.94827,0.982129 -1.42266,2.234949 -1.42266,3.758944 0,1.275638 0.36117,2.319829 1.08366,3.132625 0.73378,0.812797 1.6878,1.219564 2.86184,1.219564 0.59831,0 1.19117,-0.129997 1.77819,-0.389641 0.5983,-0.259642 1.02133,-0.519121 1.26969,-0.778763 l 0.57567,-0.660425 0.4067,-0.525033 -0.4067,-0.33848 c -0.37253,0.451553 -0.65455,0.761876 -0.84646,0.931209 -0.1919,0.169332 -0.46291,0.349658 -0.81287,0.541569 -0.33866,0.191911 -0.75068,0.287838 -1.2361,0.287838 -0.84666,0 -1.54069,-0.343876 -2.08256,-1.032495 -0.54187,-0.699909 -0.81287,-1.608853 -0.81287,-2.726449 0,-1.207906 0.27625,-2.22379 0.82941,-3.047876 0.55315,-0.835374 1.24771,-1.253153 2.08307,-1.253153 0.28222,0 0.49086,0.05085 0.62632,0.152445 0.14676,0.09031 0.36115,0.372328 0.64337,0.84646 0.28223,0.474131 0.65493,0.711068 1.11777,0.711068 0.24835,0 0.45173,-0.07864 0.60978,-0.236678 0.15804,-0.169334 0.23719,-0.378481 0.23719,-0.626836 0,-0.417686 -0.28253,-0.762079 -0.84697,-1.033011 -0.55316,-0.282221 -1.21888,-0.42323 -1.99782,-0.42323 z m -27.821553,0.01705 c -0.857952,0 -1.563513,0.231172 -2.116666,0.694014 -0.553155,0.462843 -0.829924,1.027395 -0.829924,1.693437 0,0.587019 0.164066,1.106491 0.491443,1.558044 0.338666,0.451555 0.835079,0.880345 1.489831,1.286744 l 1.28726,0.846976 c 0.2032,0.146756 0.372514,0.332845 0.50798,0.558623 0.158044,0.225776 0.236678,0.507794 0.236678,0.84646 0,0.406397 -0.146775,0.750791 -0.440283,1.033011 -0.282222,0.270933 -0.637626,0.406694 -1.066602,0.406694 -0.383821,0 -0.750753,-0.124233 -1.100708,-0.372587 -0.338666,-0.259644 -0.575602,-0.581495 -0.711068,-0.965316 l -0.220141,-0.931209 h -0.592729 l 0.186035,2.878377 h 0.592729 c 0.1016,-0.19191 0.243125,-0.287838 0.423747,-0.287838 l 0.236678,0.03411 0.440283,0.08475 c 0.428975,0.1016 0.812685,0.152446 1.151351,0.152446 0.767641,0 1.411345,-0.248465 1.930631,-0.745175 0.519288,-0.507997 0.778764,-1.111868 0.778764,-1.811775 0,-0.564443 -0.152021,-1.049844 -0.45682,-1.456242 -0.304798,-0.406399 -0.841045,-0.852482 -1.608687,-1.337903 -0.767641,-0.48542 -1.303889,-0.897436 -1.608687,-1.2361 -0.293511,-0.349955 -0.440283,-0.688582 -0.440283,-1.015959 0,-0.38382 0.129479,-0.69466 0.389123,-0.931726 0.259644,-0.248355 0.581495,-0.37207 0.965316,-0.37207 0.361242,0 0.677331,0.118468 0.948262,0.355534 0.282221,0.225776 0.474076,0.530334 0.575676,0.914156 l 0.186552,1.033012 H 89.28964 V 82.359832 C 88.996133,82.235657 88.821054,82.16227 88.764608,82.13969 88.55012,82.07196 88.352501,82.021628 88.171879,81.987761 c -0.169333,-0.04516 -0.338647,-0.07346 -0.507979,-0.08475 -0.169333,-0.01129 -0.344412,-0.01705 -0.525033,-0.01705 z m 8.348328,0 c -1.162751,0 -2.105765,0.350157 -2.828251,1.050065 -0.711198,0.688619 -1.066602,1.196561 -1.066602,1.523938 l 0.03411,0.287838 0.101285,0.287837 1.74408,-0.762227 c -0.05645,-0.158044 -0.08475,-0.315829 -0.08475,-0.473873 0,-0.338666 0.158302,-0.632213 0.474389,-0.880566 0.327377,-0.259644 0.705321,-0.389641 1.134298,-0.389641 0.19191,0 0.361224,0.0283 0.507979,0.08475 0.158044,0.05644 0.271264,0.101525 0.338998,0.135392 0.259642,0.158044 0.423193,0.355663 0.490926,0.592729 0.06774,0.169333 0.107052,0.316106 0.118339,0.440283 0.01129,0.112888 0.01705,0.298978 0.01705,0.558622 v 0.677478 l -0.575675,0.220142 -1.32085,0.542086 c -0.541864,0.225776 -0.987949,0.417631 -1.337903,0.575675 -0.349955,0.158045 -0.609431,0.282277 -0.778764,0.372587 -0.349953,0.191911 -0.682817,0.462399 -0.998905,0.812354 -0.316088,0.349954 -0.47439,0.830108 -0.47439,1.439705 0,1.603016 0.829794,2.404504 2.489254,2.404504 0.948263,0 1.767045,-0.333379 2.455664,-0.999422 L 96.4861,89.827592 c 0.112889,1.027285 0.575749,1.540991 1.388546,1.540991 0.372532,0 0.727936,-0.09593 1.066602,-0.287838 0.349953,-0.203198 0.773502,-0.547592 1.270202,-1.033011 l -0.338993,-0.42323 c -0.530576,0.451553 -0.931062,0.677478 -1.201994,0.677478 -0.203199,0 -0.344207,-0.07339 -0.42323,-0.220142 -0.06773,-0.158044 -0.101802,-0.446342 -0.101802,-0.86403 v -4.893241 c 0,-0.609598 -0.0844,-1.061447 -0.253732,-1.354956 -0.158044,-0.304799 -0.463118,-0.558512 -0.914673,-0.761711 -0.451553,-0.214488 -0.947967,-0.321944 -1.489831,-0.321944 z m 9.465575,0 c -1.16276,0 -2.10525,0.350157 -2.82774,1.050065 -0.7112,0.688619 -1.06712,1.196561 -1.06712,1.523938 l 0.0341,0.287838 0.10129,0.287837 1.74459,-0.762227 c -0.0565,-0.158044 -0.0847,-0.315829 -0.0847,-0.473873 0,-0.338666 0.15779,-0.632213 0.47388,-0.880566 0.32738,-0.259644 0.70583,-0.389641 1.13481,-0.389641 0.19191,0 0.36123,0.0283 0.50798,0.08475 0.15805,0.05644 0.27075,0.101525 0.33848,0.135392 0.25965,0.158044 0.42319,0.355663 0.49093,0.592729 0.0678,0.169333 0.10759,0.316106 0.11885,0.440283 0.0113,0.112888 0.0165,0.298978 0.0165,0.558622 v 0.677478 l -0.57568,0.220142 -1.32085,0.542086 c -0.54186,0.225776 -0.98743,0.417631 -1.33738,0.575675 -0.34995,0.158045 -0.60995,0.282277 -0.77928,0.372587 -0.34996,0.191911 -0.68282,0.462399 -0.99891,0.812354 -0.31609,0.349954 -0.47387,0.830108 -0.47387,1.439705 0,1.603016 0.82927,2.404504 2.48874,2.404504 0.94826,0 1.76704,-0.333379 2.45566,-0.999422 l 0.55862,-0.558622 c 0.11289,1.027285 0.57575,1.540991 1.38855,1.540991 0.37253,0 0.72846,-0.09593 1.06712,-0.287838 0.34996,-0.203198 0.77298,-0.547592 1.26969,-1.033011 l -0.33848,-0.42323 c -0.53058,0.451553 -0.93159,0.677478 -1.20251,0.677478 -0.2032,0 -0.34421,-0.07339 -0.42323,-0.220142 -0.0677,-0.158044 -0.10181,-0.446342 -0.10181,-0.86403 v -4.893241 c 0,-0.609598 -0.0844,-1.061447 -0.25373,-1.354956 -0.15805,-0.304799 -0.46312,-0.558512 -0.91467,-0.761711 -0.45155,-0.214488 -0.94797,-0.321944 -1.48983,-0.321944 z m -8.483723,3.674711 v 3.674194 l -0.406177,0.440283 c -0.270931,0.237067 -0.581771,0.423675 -0.931726,0.559139 -0.349953,0.135467 -0.677053,0.203089 -0.981852,0.203089 -0.903107,0 -1.354956,-0.615399 -1.354956,-1.845882 0,-0.553154 0.197619,-1.004485 0.592729,-1.35444 0.406398,-0.349953 1.236193,-0.818578 2.489253,-1.405599 z m 9.465573,0 v 3.674194 l -0.40618,0.440283 c -0.27093,0.237067 -0.58125,0.423675 -0.93121,0.559139 -0.34995,0.135467 -0.67757,0.203089 -0.98237,0.203089 -0.9031,0 -1.35444,-0.615399 -1.35444,-1.845882 0,-0.553154 0.19763,-1.004485 0.59273,-1.35444 0.4064,-0.349953 1.23568,-0.818578 2.48874,-1.405599 z m 7.70496,33.691484 c -0.46285,0.27094 -0.79623,0.46279 -0.99943,0.57568 -0.2032,0.1016 -0.41759,0.20329 -0.64337,0.30489 -0.21449,0.0903 -0.67158,0.13539 -1.37149,0.13539 v 0.44028 c 0.66604,0.11289 1.08382,0.23712 1.25315,0.37259 0.18062,0.12417 0.28756,0.24789 0.32143,0.37207 0.0451,0.11289 0.0677,0.33881 0.0677,0.67748 v 8.29717 c 0,0.63217 -0.12372,1.07825 -0.37207,1.3379 -0.23707,0.25965 -0.66061,0.38964 -1.27021,0.38964 v 0.60927 l 1.42265,-0.0677 0.99891,-0.0842 0.91467,0.0842 c 0.13547,0.0113 0.34409,0.0338 0.62632,0.0677 h 0.89762 v -0.60927 c -0.62089,0 -1.03867,-0.10745 -1.25316,-0.32194 -0.19191,-0.22578 -0.28783,-0.6944 -0.28783,-1.4056 v -4.92735 c 0.31608,-0.16933 0.54201,-0.2878 0.67747,-0.35553 0.13547,-0.0677 0.28224,-0.13009 0.44029,-0.18656 0.21448,-0.11288 0.46245,-0.20305 0.74465,-0.27078 0.29352,-0.079 0.57029,-0.11834 0.82993,-0.11834 0.55316,0 0.94263,0.16355 1.1684,0.49093 0.12418,0.18062 0.22011,0.3557 0.28784,0.52503 0.0677,0.16933 0.12437,0.4178 0.1695,0.74517 0.0565,0.31609 0.0847,0.87487 0.0847,1.67639 0,0.93697 -0.0283,1.70439 -0.0847,2.3027 -0.0677,0.51928 -0.15265,0.92029 -0.25425,1.20251 -0.13547,0.27093 -0.288,0.4455 -0.45734,0.52452 -0.15804,0.079 -0.41751,0.11885 -0.77876,0.11885 v 0.60927 l 1.38855,-0.0677 1.01595,-0.0842 0.89762,0.0842 c 0.13547,0.0113 0.33834,0.0338 0.60927,0.0677 h 0.86403 v -0.62632 c -0.62089,0 -1.05019,-0.0902 -1.28726,-0.27079 -0.21449,-0.2032 -0.32143,-0.57014 -0.32143,-1.1007 l 0.0165,-0.339 0.0677,-1.52394 c 0,-0.15804 0.006,-0.3782 0.0171,-0.66043 0.0113,-0.2822 0.017,-0.49085 0.017,-0.62631 0,-1.1176 -0.0676,-1.92485 -0.20309,-2.42156 -0.13546,-0.49671 -0.40647,-0.91449 -0.81287,-1.25315 -0.4064,-0.33867 -0.86926,-0.50798 -1.38854,-0.50798 -0.42898,0 -0.87506,0.0849 -1.33791,0.25424 -0.46284,0.15804 -1.01009,0.42905 -1.64227,0.81287 l -0.72812,0.45682 v -5.65546 z m 29.73461,0.15245 c -0.81278,0.4064 -1.37158,0.66011 -1.67638,0.76171 -0.2032,0.0903 -0.45166,0.17523 -0.74517,0.25425 -0.2032,0.0452 -0.40083,0.0903 -0.59273,0.13539 v 0.44028 l 0.84697,0.16898 c 0.0564,0.0226 0.12407,0.0509 0.20309,0.0847 0.079,0.0339 0.17495,0.0905 0.28784,0.1695 0.11289,0.079 0.18628,0.18648 0.22014,0.32195 0.0339,0.12417 0.0507,0.36687 0.0507,0.72812 v 7.99227 c 0,0.66604 -0.11271,1.12314 -0.33849,1.3715 -0.22578,0.23706 -0.64932,0.35553 -1.2702,0.35553 v 0.57568 l 1.42265,-0.0677 1.04955,-0.0842 0.91467,0.0842 c 0.13547,0.0113 0.3441,0.0338 0.62632,0.0677 h 0.88057 v -0.60927 c -0.6096,0 -1.02738,-0.11847 -1.25316,-0.35553 -0.22578,-0.23707 -0.33848,-0.68891 -0.33848,-1.35496 v -10.82053 z m -60.604048,0.93121 -1.794723,0.0677 -2.709395,0.25373 v 0.55914 c 0.58702,0 0.99327,0.12948 1.219047,0.38913 0.237066,0.25964 0.355534,0.68895 0.355534,1.28726 v 7.61969 c 0,0.57572 -0.124234,0.99927 -0.372587,1.2702 -0.248356,0.27094 -0.648841,0.40618 -1.201994,0.40618 v 0.57619 l 1.506885,-0.0677 1.100708,-0.0847 1.337902,0.11834 c 0.135467,0 0.355626,0.006 0.660425,0.0171 0.304799,0.0113 0.541735,0.0165 0.711068,0.0165 V 132.223 c -0.711196,0 -1.208128,-0.13 -1.490348,-0.38964 -0.282221,-0.27094 -0.42323,-0.70549 -0.42323,-1.3038 v -2.89543 l 1.066601,0.0336 c 0.191911,0 0.440376,-0.0168 0.745174,-0.0506 0.304799,-0.0338 0.62665,-0.0789 0.965316,-0.1354 l 0.558622,0.96532 0.880567,1.3038 c 0.237065,0.34995 0.46299,0.66604 0.677478,0.94826 0.214488,0.27093 0.412108,0.50787 0.592728,0.71107 0.349955,0.38382 0.772982,0.71668 1.26969,0.9989 0.711198,0.44026 1.462357,0.66043 2.252576,0.66043 l 0.406177,-0.0165 0.457336,-0.0677 v -0.51469 c 0.410168,0.32 0.985586,0.48059 1.727027,0.48059 0.948263,0 1.766528,-0.33338 2.455147,-0.99942 l 0.559139,-0.55863 c 0.112888,1.02729 0.575748,1.54099 1.388546,1.54099 0.372531,0 0.727937,-0.0959 1.066601,-0.28783 0.349955,-0.2032 0.773491,-0.54761 1.270211,-1.03301 l -0.339002,-0.42323 c -0.530575,0.45154 -0.931062,0.67747 -1.201993,0.67747 -0.2032,0 -0.344208,-0.0734 -0.42323,-0.22014 -0.06773,-0.15804 -0.101803,-0.44583 -0.101803,-0.86351 v -4.89376 c 0,-0.60959 -0.08491,-1.06144 -0.254248,-1.35496 -0.158044,-0.3048 -0.462602,-0.55851 -0.914156,-0.76171 -0.451554,-0.21448 -0.948484,-0.32194 -1.490348,-0.32194 -1.162751,0 -2.105248,0.35017 -2.827735,1.05006 -0.711197,0.68863 -1.066601,1.19657 -1.066601,1.52394 l 0.03359,0.28784 0.101803,0.28784 1.74408,-0.76223 c -0.05645,-0.15805 -0.08475,-0.31583 -0.08475,-0.47387 0,-0.33867 0.158302,-0.63222 0.47439,-0.88057 0.327377,-0.25964 0.705321,-0.38964 1.134298,-0.38964 0.19191,0 0.361224,0.0283 0.507979,0.0847 0.158044,0.0564 0.271265,0.10153 0.338997,0.13539 0.259644,0.15804 0.423193,0.35566 0.490926,0.59273 0.06774,0.16933 0.107053,0.3161 0.118339,0.44028 0.01129,0.11289 0.01705,0.29898 0.01705,0.55863 v 0.67747 l -0.575676,0.22015 -1.320849,0.54208 c -0.541865,0.22578 -0.987949,0.41763 -1.337903,0.57568 -0.349955,0.15804 -0.609431,0.28228 -0.778764,0.37258 -0.349954,0.19192 -0.682818,0.46241 -0.998906,0.81236 -0.316087,0.34995 -0.474389,0.8301 -0.474389,1.4397 0,0.86818 0.243953,1.50061 0.730705,1.8986 l -0.256316,0.015 c -0.57573,0 -1.095201,-0.24846 -1.558044,-0.74517 -0.451553,-0.49672 -0.812722,-0.92551 -1.083655,-1.28675 -0.304798,-0.39511 -0.716814,-0.9822 -1.2361,-1.76113 l -0.762227,-1.11776 -0.355534,-0.49093 c 0.496708,-0.23706 0.852114,-0.43468 1.066601,-0.59272 0.225777,-0.16934 0.485771,-0.46288 0.779281,-0.88057 0.29351,-0.42898 0.440283,-0.97099 0.440283,-1.62574 0,-1.17404 -0.49693,-2.07145 -1.490348,-2.69234 -0.993418,-0.62089 -2.421317,-0.93121 -4.283976,-0.93121 z m 0.253731,0.60926 c 1.106306,0 1.975934,0.27677 2.608109,0.82993 0.632176,0.54186 0.948263,1.27573 0.948263,2.20141 0,0.99342 -0.344392,1.76084 -1.033012,2.3027 -0.688619,0.54187 -1.636881,0.81287 -2.844788,0.81287 l -1.033011,-0.0336 v -6.01152 z m 43.688287,2.50631 c -1.16275,0 -2.10576,0.35017 -2.82825,1.05006 -0.7112,0.68863 -1.0666,1.19657 -1.0666,1.52394 l 0.0341,0.28784 0.10128,0.28784 1.74408,-0.76223 c -0.0565,-0.15805 -0.0847,-0.31583 -0.0847,-0.47387 0,-0.33867 0.1583,-0.63222 0.47439,-0.88057 0.32737,-0.25964 0.70532,-0.38964 1.1343,-0.38964 0.19191,0 0.36122,0.0283 0.50798,0.0847 0.15804,0.0564 0.27126,0.10153 0.339,0.13539 0.25964,0.15804 0.42319,0.35566 0.49092,0.59273 0.0678,0.16933 0.10707,0.3161 0.11834,0.44028 0.0113,0.11289 0.0171,0.29898 0.0171,0.55863 v 0.67747 l -0.57567,0.22015 -1.32085,0.54208 c -0.54186,0.22578 -0.98794,0.41763 -1.3379,0.57568 -0.34996,0.15804 -0.60943,0.28228 -0.77877,0.37258 -0.34995,0.19192 -0.68282,0.46241 -0.9989,0.81236 -0.3161,0.34995 -0.47439,0.8301 -0.47439,1.4397 0,1.60302 0.82979,2.40451 2.48925,2.40451 0.94827,0 1.76705,-0.33338 2.45567,-0.99942 l 0.55862,-0.55863 c 0.11288,1.02729 0.57574,1.54099 1.38854,1.54099 0.37254,0 0.72794,-0.0959 1.06661,-0.28783 0.34994,-0.2032 0.7735,-0.54761 1.2702,-1.03301 l -0.339,-0.42323 c -0.53058,0.45154 -0.93106,0.67747 -1.20199,0.67747 -0.2032,0 -0.34421,-0.0734 -0.42323,-0.22014 -0.0677,-0.15804 -0.1018,-0.44583 -0.1018,-0.86351 v -4.89376 c 0,-0.60959 -0.0844,-1.06144 -0.25373,-1.35496 -0.15804,-0.3048 -0.46312,-0.55851 -0.91468,-0.76171 -0.45155,-0.21448 -0.94796,-0.32194 -1.48983,-0.32194 z m 9.24543,0 c -1.24178,0 -2.27495,0.4854 -3.09903,1.45624 -0.8128,0.97085 -1.21905,2.17858 -1.21905,3.62355 0,1.35467 0.35541,2.43869 1.0666,3.25148 0.72249,0.80152 1.67651,1.202 2.86184,1.202 0.63218,0 1.23605,-0.12948 1.81178,-0.38913 0.58702,-0.27093 1.07242,-0.63786 1.45624,-1.1007 l 0.67748,-0.84698 -0.33848,-0.37207 c -0.34996,0.45155 -0.62673,0.76764 -0.82993,0.94826 -0.2032,0.16933 -0.49098,0.35542 -0.86351,0.55862 -0.37253,0.19192 -0.80184,0.28784 -1.28726,0.28784 -0.83537,0 -1.51263,-0.37269 -2.03192,-1.11776 -0.508,-0.75635 -0.76171,-1.71562 -0.76171,-2.87838 l 0.0171,-0.40669 0.0506,-0.52503 h 6.31589 c 0.0903,-0.0903 0.13539,-0.18624 0.13539,-0.28784 0,-0.13549 -0.0393,-0.22565 -0.11833,-0.27079 l -0.28784,-0.10128 c -0.13547,-0.0677 -0.24293,-0.36128 -0.32195,-0.88057 -0.1016,-0.54186 -0.46276,-1.03303 -1.08365,-1.47329 -0.62089,-0.45156 -1.33746,-0.67748 -2.15026,-0.67748 z m -29.39614,0.0341 c -0.37253,0 -0.74522,0.0734 -1.11776,0.22014 -0.39511,0.19191 -0.8522,0.47393 -1.37149,0.84646 l -0.89762,0.60978 v -1.5751 l -0.28784,-0.0336 c -0.77893,0.44027 -1.29263,0.71127 -1.54099,0.81287 -0.25964,0.12418 -0.74504,0.18604 -1.45624,0.18604 v 0.44028 l 0.84698,0.18604 c 0.14675,0.0452 0.28776,0.11854 0.42323,0.22014 0.14676,0.0903 0.23691,0.192 0.27078,0.30489 0.0339,0.1016 0.0506,0.33853 0.0506,0.71107 v 7.87445 c 0,0.58702 -0.11846,0.99903 -0.35553,1.2361 -0.23707,0.24836 -0.65484,0.40614 -1.253153,0.47387 v 0.60979 l 1.540993,-0.0677 1.10071,-0.0677 1.15135,0.0677 c 0.22578,0 0.51932,0.011 0.88056,0.0336 0.36125,0.0226 0.60971,0.0341 0.74518,0.0341 v -0.60979 c -0.8128,0 -1.37159,-0.12999 -1.67639,-0.38964 -0.3048,-0.24835 -0.45733,-0.69392 -0.45733,-1.33738 v -1.79524 c 0.48542,0.2258 0.82404,0.36156 1.01596,0.40669 0.2032,0.0452 0.3898,0.0735 0.55914,0.0847 0.16933,0.0113 0.36118,0.0165 0.57567,0.0165 1.34337,0 2.44942,-0.48541 3.31866,-1.45624 0.88053,-0.97084 1.32085,-2.18434 1.32085,-3.64061 0,-1.24177 -0.33287,-2.28597 -0.9989,-3.13262 -0.65476,-0.84666 -1.45048,-1.26969 -2.38746,-1.26969 z m 29.176,0.54156 c 1.07245,0 1.70462,0.8581 1.89653,2.57401 h -4.06436 l 0.27131,-0.91467 0.54157,-0.9648 c 0.2935,-0.46285 0.74536,-0.69454 1.35495,-0.69454 z m -29.97181,0.64338 c 0.74506,0 1.3374,0.33862 1.77767,1.01596 0.45155,0.66602 0.67747,1.54669 0.67747,2.64169 0,1.19662 -0.28778,2.17319 -0.86351,2.92954 -0.57573,0.74507 -1.30383,1.11776 -2.18436,1.11776 -0.37253,0 -0.73946,-0.0849 -1.10071,-0.25425 l -0.47439,-0.30489 c -0.12418,-0.11288 -0.27095,-0.27643 -0.44028,-0.49092 v -5.50303 l 0.66042,-0.42374 c 0.76765,-0.48542 1.41711,-0.72812 1.94769,-0.72812 z m -9.499681,2.45566 v 3.67419 l -0.406694,0.44029 c -0.270932,0.23706 -0.581256,0.42367 -0.931209,0.55914 -0.349954,0.13546 -0.677054,0.20309 -0.981852,0.20309 -0.903108,0 -1.354956,-0.6154 -1.354956,-1.84589 0,-0.55316 0.197619,-1.00448 0.592728,-1.35444 0.406399,-0.34995 1.236192,-0.81858 2.489254,-1.4056 z m 31.428051,0 v 3.67419 l -0.40617,0.44029 c -0.27093,0.23706 -0.58177,0.42367 -0.93173,0.55914 -0.34995,0.13546 -0.67705,0.20309 -0.98185,0.20309 -0.90311,0 -1.35496,-0.6154 -1.35496,-1.84589 0,-0.55316 0.19763,-1.00448 0.59273,-1.35444 0.4064,-0.34995 1.23619,-0.81858 2.48926,-1.4056 z m -17.30592,36.69699 c -0.8128,0.40638 -1.37158,0.66062 -1.67638,0.76222 -0.2032,0.0903 -0.45167,0.17471 -0.74517,0.25373 -0.2032,0.0452 -0.4003,0.0903 -0.59222,0.1354 v 0.44028 l 0.84646,0.1695 c 0.0564,0.0226 0.12407,0.0509 0.20309,0.0847 0.079,0.0339 0.17495,0.0899 0.28784,0.16898 0.11289,0.079 0.18628,0.18648 0.22014,0.32194 0.0339,0.12418 0.0512,0.36688 0.0512,0.72812 v 7.99228 c 0,0.66604 -0.11322,1.12366 -0.339,1.37201 -0.22578,0.23707 -0.6488,0.35553 -1.26969,0.35553 v 0.57568 l 1.42214,-0.0677 1.05007,-0.0848 0.91415,0.0848 c 0.13547,0.0113 0.34462,0.0338 0.62684,0.0677 h 0.88056 v -0.60978 c -0.6096,0 -1.02737,-0.11847 -1.25315,-0.35554 -0.22577,-0.23706 -0.339,-0.6884 -0.339,-1.35443 v -10.82053 z m -28.549158,1.01595 c -0.959552,0 -1.766805,0.28778 -2.421557,0.86352 -0.643465,0.56444 -0.965316,1.27576 -0.965316,2.13372 0,0.54186 0.129996,1.02726 0.38964,1.45624 0.270933,0.41769 0.705487,0.84648 1.303797,1.28674 l 1.2361,0.88057 c 0.925685,0.64346 1.512778,1.06701 1.761133,1.27021 0.259642,0.1919 0.490815,0.44613 0.694014,0.76222 0.214489,0.3048 0.321944,0.69952 0.321944,1.18494 0,0.62089 -0.209147,1.12883 -0.626835,1.52394 -0.406398,0.39511 -0.947892,0.59273 -1.625224,0.59273 -0.440264,0 -0.869572,-0.0959 -1.28726,-0.28784 -0.395108,-0.20319 -0.722208,-0.45691 -0.981852,-0.76171 -0.248354,-0.31609 -0.423433,-0.6154 -0.525032,-0.89762 -0.1016,-0.28222 -0.203291,-0.68847 -0.304891,-1.21905 h -0.541569 l 0.473873,3.58945 h 0.542085 v -0.0677 c 0,-0.15804 0.11847,-0.23667 0.355534,-0.23667 0.1016,0.0113 0.197527,0.028 0.287838,0.0506 0.09031,0.0226 0.225555,0.0677 0.406177,0.13539 0.372531,0.1242 0.68862,0.20912 0.948262,0.25425 0.270933,0.0565 0.587019,0.0842 0.948263,0.0842 1.061151,0 1.947555,-0.32709 2.658752,-0.98185 0.711198,-0.65475 1.066602,-1.45048 1.066602,-2.38745 0,-0.62089 -0.152021,-1.17443 -0.45682,-1.65985 -0.29351,-0.49671 -0.75637,-0.96481 -1.388546,-1.40508 l -0.626835,-0.44028 -1.168404,-0.81287 -1.117244,-0.79582 c -0.180622,-0.14675 -0.344688,-0.29354 -0.491443,-0.44028 -0.07902,-0.079 -0.169185,-0.18072 -0.270785,-0.3049 -0.259642,-0.3048 -0.38964,-0.67172 -0.38964,-1.1007 0,-0.51929 0.180842,-0.9313 0.542086,-1.2361 0.372531,-0.3048 0.863698,-0.45734 1.473295,-0.45734 1.512704,0 2.466214,0.97657 2.861324,2.92954 h 0.491443 l -0.406694,-3.36982 h -0.473873 c -0.05644,0.27093 -0.186441,0.40669 -0.38964,0.40669 l -0.457336,-0.11886 -0.626319,-0.23667 c -0.372531,-0.12418 -0.778781,-0.18656 -1.219047,-0.18656 z m 9.736357,3.03083 c -1.162751,0 -2.105249,0.35015 -2.827734,1.05006 -0.711198,0.68862 -1.066602,1.19657 -1.066602,1.52394 l 0.03359,0.28784 0.101802,0.28784 1.74408,-0.76172 c -0.05645,-0.15804 -0.08475,-0.31635 -0.08475,-0.47438 0,-0.33866 0.157786,-0.63221 0.473873,-0.88057 0.327377,-0.25964 0.705839,-0.38912 1.134815,-0.38912 0.19191,0 0.361224,0.0283 0.507979,0.0847 0.158044,0.0565 0.270747,0.10153 0.338481,0.1354 0.259642,0.15804 0.423709,0.35566 0.491443,0.59273 0.06774,0.16932 0.107052,0.3161 0.118339,0.44028 0.01129,0.11289 0.01705,0.29897 0.01705,0.55862 v 0.67748 l -0.575676,0.22014 -1.320849,0.54157 c -0.541865,0.22578 -0.987949,0.41765 -1.337903,0.57567 -0.349955,0.15805 -0.609431,0.28228 -0.778764,0.37259 -0.349954,0.19191 -0.683334,0.46292 -0.999422,0.81287 -0.316088,0.34996 -0.473873,0.8296 -0.473873,1.43919 0,1.60302 0.829793,2.40451 2.489254,2.40451 0.948263,0 1.766528,-0.33287 2.455147,-0.99891 l 0.559139,-0.55862 c 0.112889,1.02728 0.575232,1.54099 1.388029,1.54099 0.372532,0 0.728454,-0.0964 1.067118,-0.28836 0.349955,-0.2032 0.772982,-0.54707 1.26969,-1.03249 l -0.33848,-0.42375 c -0.530576,0.45156 -0.931062,0.67748 -1.201994,0.67748 -0.203199,0 -0.344725,-0.0734 -0.423747,-0.22014 -0.06773,-0.15805 -0.101286,-0.44583 -0.101286,-0.86351 v -4.89376 c 0,-0.6096 -0.08492,-1.06093 -0.254248,-1.35444 -0.158044,-0.3048 -0.462602,-0.55903 -0.914156,-0.76223 -0.451553,-0.21449 -0.948484,-0.32194 -1.490348,-0.32194 z m 7.569047,0.1018 c -0.77893,0.44027 -1.281108,0.71127 -1.506885,0.81287 -0.214488,0.0903 -0.440411,0.1469 -0.677478,0.1695 -0.225777,0.0113 -0.491018,0.0165 -0.795817,0.0165 v 0.4408 l 0.575676,0.11834 0.440283,0.1354 0.338997,0.16949 c 0.09031,0.0452 0.152169,0.13532 0.186035,0.27079 0.03387,0.13547 0.05064,0.37817 0.05064,0.72812 v 4.03025 c 0,0.60958 0.07339,1.07245 0.220142,1.38854 0.146755,0.31609 0.395219,0.5871 0.745174,0.81287 0.361243,0.21449 0.767493,0.32143 1.219047,0.32143 0.94827,0 1.98144,-0.38947 3.09904,-1.16841 l 0.74517,-0.55862 v 1.52394 l 0.32143,0.22014 3.20032,-1.15135 v -0.57567 c -0.42898,0.21449 -0.77285,0.32142 -1.03249,0.32142 -0.19192,0 -0.36123,-0.0561 -0.50798,-0.16898 -0.14674,-0.12417 -0.23165,-0.24841 -0.25425,-0.37259 -0.0113,-0.12418 -0.0171,-0.27671 -0.0171,-0.45733 v -0.50798 -6.48539 l -0.32143,-0.0341 c -0.77893,0.44027 -1.33774,0.71704 -1.67638,0.82992 -0.32738,0.1129 -0.77923,0.1695 -1.35496,0.1695 v 0.44028 l 0.62683,0.11834 0.37259,0.10181 0.32143,0.15193 c 0.14675,0.079 0.23743,0.18647 0.2713,0.32194 0.0339,0.13547 0.0506,0.37817 0.0506,0.72812 v 4.16564 l -0.93121,0.71107 c -0.21448,0.13545 -0.50278,0.27647 -0.86403,0.42323 -0.34995,0.14674 -0.71637,0.22014 -1.10019,0.22014 -0.508,0 -0.87493,-0.14101 -1.100709,-0.42323 -0.225776,-0.29351 -0.338997,-0.76214 -0.338997,-1.4056 v -6.51898 z m -6.586678,3.57291 v 3.67471 l -0.406694,0.44028 c -0.270931,0.23707 -0.581254,0.42316 -0.931209,0.55862 -0.349954,0.13547 -0.677053,0.20309 -0.981852,0.20309 -0.903108,0 -1.354956,-0.61488 -1.354956,-1.84536 0,-0.55316 0.19762,-1.005 0.592728,-1.35496 0.406399,-0.34995 1.236192,-0.81858 2.489254,-1.4056 z m 39.962422,35.38492 c -0.19191,0 -0.36699,0.0341 -0.52504,0.1018 -0.14675,0.0564 -0.28199,0.14661 -0.40617,0.27079 -0.24836,0.23705 -0.37259,0.52484 -0.37259,0.86351 0,0.32738 0.12948,0.60939 0.38912,0.84646 0.29351,0.23706 0.60435,0.35605 0.93173,0.35605 0.36124,0 0.67156,-0.11899 0.93121,-0.35605 0.25964,-0.24836 0.38964,-0.53038 0.38964,-0.84646 0,-0.34995 -0.13577,-0.6435 -0.40669,-0.88057 -0.25965,-0.23706 -0.56997,-0.35553 -0.93121,-0.35553 z m -54.23752,0.35553 v 0.55862 c 0.598309,0.0677 1.005076,0.22027 1.219564,0.45734 0.225777,0.23707 0.338481,0.64908 0.338481,1.2361 v 7.70496 c 0,0.5983 -0.112704,1.02133 -0.338481,1.26969 -0.225777,0.23704 -0.637792,0.38381 -1.2361,0.44028 v 0.54209 l 1.083655,-0.0677 0.863513,-0.0677 0.998905,0.10129 c 0.06773,0 0.175189,0.0115 0.321944,0.0341 h 0.287838 0.338481 v -0.57568 c -0.59831,0 -1.021336,-0.12423 -1.26969,-0.37259 -0.237067,-0.27093 -0.355534,-0.70549 -0.355534,-1.30379 v -8.33128 l 9.24543,10.58334 h 0.914156 v -9.99061 c 0,-0.56444 0.113221,-0.96544 0.338998,-1.20251 0.225777,-0.24833 0.632027,-0.40087 1.219047,-0.45734 V 207.285 c -0.756352,0.079 -1.400055,0.11834 -1.930632,0.11834 L 88.357914,207.285 v 0.55862 c 0.609598,0 1.033141,0.13576 1.270207,0.4067 0.248354,0.25964 0.372587,0.68843 0.372587,1.28674 v 7.46776 L 81.618791,207.285 c -0.745065,0.0677 -1.287075,0.1018 -1.625741,0.1018 -0.395109,0 -0.965427,-0.0341 -1.71049,-0.1018 z m 19.270142,2.89543 c -1.162751,0 -2.105247,0.35015 -2.827735,1.05007 -0.711196,0.68862 -1.066601,1.19656 -1.066601,1.52394 l 0.03359,0.28783 0.101802,0.28784 1.74408,-0.76171 c -0.05645,-0.15805 -0.08475,-0.31635 -0.08475,-0.47439 0,-0.33867 0.158302,-0.63221 0.47439,-0.88057 0.327376,-0.25964 0.705321,-0.38912 1.134298,-0.38912 0.19191,0 0.361224,0.0278 0.507979,0.0842 0.158044,0.0565 0.270747,0.10205 0.338481,0.13591 0.259642,0.15805 0.423709,0.35515 0.491443,0.59221 0.06773,0.16934 0.107052,0.31611 0.118339,0.44029 0.01129,0.11289 0.01705,0.2995 0.01705,0.55914 v 0.67696 l -0.575676,0.22014 -1.320849,0.54209 c -0.541865,0.22576 -0.987949,0.41763 -1.337903,0.57567 -0.349955,0.15805 -0.609431,0.28227 -0.778764,0.37259 -0.349954,0.1919 -0.682818,0.46291 -0.998905,0.81287 -0.316088,0.34995 -0.47439,0.82959 -0.47439,1.43919 0,1.60301 0.829793,2.4045 2.489254,2.4045 0.948262,0 1.766528,-0.33288 2.455147,-0.9989 l 0.559139,-0.55863 c 0.112889,1.02729 0.575749,1.54048 1.388546,1.54048 0.372533,0 0.727933,-0.0959 1.066603,-0.28784 0.34995,-0.20319 0.7735,-0.54759 1.27021,-1.03301 l -0.339,-0.42323 c -0.53057,0.45155 -0.93106,0.67748 -1.20199,0.67748 -0.2032,0 -0.34472,-0.0734 -0.42375,-0.22015 -0.0677,-0.15804 -0.10129,-0.44582 -0.10129,-0.86351 v -4.89376 c 0,-0.6096 -0.0849,-1.06144 -0.254247,-1.35495 -0.158044,-0.3048 -0.462602,-0.55851 -0.914156,-0.76171 -0.451553,-0.2145 -0.948484,-0.32195 -1.490348,-0.32195 z m 9.736878,0 c -1.39982,0 -2.55148,0.44032 -3.45457,1.32085 -0.89182,0.88053 -1.33791,1.99811 -1.33791,3.35277 0,1.41111 0.45761,2.57953 1.37201,3.50521 0.92569,0.91439 2.07683,1.37201 3.45405,1.37201 1.41111,0 2.54021,-0.42355 3.38688,-1.27021 0.85795,-0.85795 1.28674,-1.96976 1.28674,-3.33571 0,-1.45626 -0.44032,-2.64197 -1.32085,-3.55637 -0.88052,-0.92569 -2.00912,-1.38855 -3.38635,-1.38855 z m 12.61525,5.2e-4 c -0.23707,0 -0.463,0.0226 -0.67748,0.0677 -0.2145,0.0452 -0.45719,0.11277 -0.72812,0.20308 -0.48542,0.18062 -1.03845,0.46841 -1.65933,0.86352 l -0.74518,0.49092 v -1.48983 l -0.30489,-0.0341 c -0.77893,0.45154 -1.33772,0.73356 -1.67638,0.84646 -0.32738,0.10158 -0.77295,0.15244 -1.33739,0.15244 v 0.44028 l 0.91416,0.1695 0.38964,0.18604 c 0.14676,0.1016 0.23692,0.22058 0.27078,0.35605 0.0339,0.12418 0.0507,0.36111 0.0507,0.71107 v 4.01319 c 0,0.66604 -0.11847,1.12314 -0.35554,1.37149 -0.22578,0.23707 -0.6488,0.35553 -1.26969,0.35553 v 0.60979 l 1.40508,-0.0677 1.03302,-0.0848 0.89762,0.0848 c 0.13546,0.0113 0.34409,0.0338 0.62631,0.0677 h 0.88057 v -0.60979 c -0.6096,0 -1.01585,-0.1127 -1.21905,-0.33848 -0.2032,-0.23706 -0.30489,-0.69416 -0.30489,-1.37149 l 0.0171,-4.86017 c 0.77892,-0.41768 1.35449,-0.68869 1.72702,-0.81287 0.38382,-0.13546 0.72245,-0.20309 1.01596,-0.20309 1.07245,0 1.60869,0.77895 1.60869,2.33681 v 3.53932 c 0,0.66604 -0.10169,1.11737 -0.30489,1.35444 -0.22578,0.23707 -0.62626,0.35553 -1.202,0.35553 v 0.60979 l 1.40509,-0.0677 0.98236,-0.0848 0.88057,0.0848 c 0.18062,0.0113 0.44586,0.0338 0.79582,0.0677 h 0.69453 v -0.60979 c -0.64347,0 -1.06701,-0.1127 -1.27021,-0.33848 -0.2032,-0.23706 -0.30489,-0.69416 -0.30489,-1.37149 v -4.06435 -0.37207 l 0.0341,-0.45734 c 0.64346,-0.37253 1.16818,-0.62676 1.57458,-0.76222 0.23707,-0.0903 0.44621,-0.15217 0.62683,-0.18604 0.18062,-0.0339 0.36095,-0.0512 0.54157,-0.0512 0.95956,0 1.48479,0.36169 1.5751,1.08417 0.0565,0.44027 0.09,0.75059 0.10129,0.93121 0.0226,0.18062 0.0341,0.47417 0.0341,0.88057 v 0.20309 0.54208 l -0.0677,2.25206 c 0,0.64346 -0.11847,1.08903 -0.35554,1.33739 -0.22578,0.24835 -0.62101,0.37258 -1.18545,0.37258 v 0.60979 l 1.42213,-0.0677 0.99942,-0.0848 0.89711,0.0848 c 0.13546,0.0113 0.34461,0.0338 0.62683,0.0677 h 0.8971 v -0.60979 c -0.84666,0 -1.3546,-0.19762 -1.52393,-0.59272 -0.079,-0.24836 -0.11834,-0.55292 -0.11834,-0.91416 v -0.20309 l 0.1018,-2.35386 0.0165,-0.82992 c 0,-0.94827 -0.0734,-1.65382 -0.22015,-2.11667 -0.13546,-0.47413 -0.41172,-0.87462 -0.8294,-1.20199 -0.4177,-0.32738 -0.87531,-0.49093 -1.37201,-0.49093 -0.89182,0 -1.93601,0.3837 -3.13263,1.15135 l -0.72812,0.50798 c -0.16933,-0.41769 -0.3161,-0.70022 -0.44028,-0.84698 -0.0903,-0.13546 -0.20879,-0.25393 -0.35553,-0.35553 -0.079,-0.0564 -0.18072,-0.1183 -0.3049,-0.18604 -0.2935,-0.18062 -0.64314,-0.27078 -1.04954,-0.27078 z m 13.34337,0.10129 c -0.77894,0.45154 -1.33772,0.73356 -1.67639,0.84646 -0.32738,0.10158 -0.77346,0.15244 -1.3379,0.15244 v 0.44028 l 0.89762,0.18656 0.42323,0.18603 c 0.13547,0.0903 0.22038,0.20353 0.25425,0.339 0.0339,0.12418 0.0506,0.36111 0.0506,0.71107 v 4.03024 c 0,0.34995 -0.0283,0.63197 -0.0847,0.84646 -0.0564,0.21449 -0.14084,0.3838 -0.25373,0.50798 -0.21449,0.22578 -0.64379,0.33848 -1.28726,0.33848 v 0.62684 l 1.43919,-0.0677 1.03301,-0.0848 1.2361,0.11834 c 0.0565,0 0.14713,0.0115 0.2713,0.0341 h 0.49093 0.47387 v -0.62684 c -0.65475,0 -1.08931,-0.1127 -1.30379,-0.33848 -0.2032,-0.23707 -0.3049,-0.69993 -0.3049,-1.38855 l -0.0165,-6.82387 z m -26.38185,0.49092 c 0.90309,0 1.68729,0.49693 2.35334,1.49035 0.67733,0.98213 1.01596,2.13378 1.01596,3.45457 0,1.04986 -0.23694,1.87914 -0.71107,2.48874 -0.46285,0.5983 -1.10078,0.89762 -1.91358,0.89762 -0.80151,0 -1.48453,-0.33287 -2.04897,-0.99891 -0.3048,-0.36125 -0.54749,-0.76749 -0.72812,-1.21905 -0.18062,-0.45155 -0.32163,-0.99932 -0.42323,-1.64279 -0.0339,-0.2032 -0.0564,-0.40082 -0.0677,-0.59273 -0.0113,-0.19191 -0.0171,-0.36699 -0.0171,-0.52503 0,-1.016 0.23169,-1.8285 0.69453,-2.4381 0.46285,-0.6096 1.07825,-0.91467 1.84589,-0.91467 z m -8.331279,3.08198 v 3.67471 l -0.406694,0.44029 c -0.270931,0.23706 -0.581254,0.42315 -0.931209,0.55862 -0.349954,0.13547 -0.677054,0.20309 -0.981852,0.20309 -0.903108,0 -1.354956,-0.61488 -1.354956,-1.84537 0,-0.55315 0.19762,-1.005 0.592728,-1.35495 0.406399,-0.34996 1.236192,-0.81858 2.489254,-1.4056 z" />
    </g>
    <path
       id="path1867"
       style="fill:#ff0000;fill-opacity:1;stroke:none;stroke-width:1.2446"
       d="m -151.61503,44.759298 v 3.04788 0.76223 h -3.04788 v 6.35 h 3.04788 v 6.35 h -3.04788 v 6.35 h 3.04788 v 6.35 h -3.04788 v 6.35 h 3.04788 v 6.35 h -3.04788 v 6.35 h 3.04788 v 6.35 h -3.04788 v 6.350002 h 3.04788 v 6.35 h -3.04788 v 6.34999 h 3.04788 v 6.35 h -3.04788 v 6.35 h 3.04788 v 6.35 h -3.04788 v 6.35 h 3.04788 v 6.35 h -3.04788 v 6.35 h 3.04788 v 6.35 h -3.04788 v 6.35 h 3.04788 v 6.35 h -3.04788 v 6.35 h 3.04788 v 6.35 h -3.04788 v 6.35 h 3.04788 v 6.35 h -3.04788 v 6.35 h 3.04788 v 6.35 h -3.04788 v 6.35 h 3.04788 v 6.35 h -3.04788 v 6.35 h 3.04788 v 6.35 h -3.04788 v 6.35 h 3.04788 v 6.35 h -3.04788 v 6.35 h 3.04788 v 6.35 h -3.04788 v 3.81011 h 6.22288 v -3.04788 h 6.35 v 3.04788 h 6.35 v -3.04788 h 6.35 v 3.04788 h 6.35 v -3.04788 h 6.35 v 3.04788 h 6.35 v -3.04788 h 6.35 v 3.04788 h 3.175 v -3.04788 -0.76223 h 3.047875 v -6.35 h -3.047875 v -6.35 h 3.047875 v -6.35 h -3.047875 v -6.35 h 3.047875 v -6.35 h -3.047875 v -6.35 h 3.047875 v -6.35 h -3.047875 v -6.35 h 3.047875 v -6.35 h -3.047875 v -6.35 h 3.047875 v -6.35 h -3.047875 v -6.35 h 3.047875 v -6.35 h -3.047875 v -6.35 h 3.047875 v -6.35 h -3.047875 v -6.35 h 3.047875 v -6.35 h -3.047875 v -6.35 h 3.047875 v -6.35 h -3.047875 v -6.35 h 3.047875 v -6.35 h -3.047875 v -6.35 h 3.047875 v -6.35 h -3.047875 v -6.34999 h 3.047875 v -6.35 h -3.047875 v -6.350002 h 3.047875 v -6.35 h -3.047875 v -6.35 h 3.047875 v -6.35 h -3.047875 v -6.35 h 3.047875 v -6.35 h -3.047875 v -6.35 h 3.047875 v -6.35 h -3.047875 v -6.35 h 3.047875 v -3.81011 h -6.222875 v 3.04788 h -6.35 v -3.04788 h -6.35 v 3.04788 h -6.35 v -3.04788 h -6.35 v 3.04788 h -6.35 v -3.04788 h -6.35 v 3.04788 h -6.35 v -3.04788 z" />
    <path
       id="path1871"
       style="fill:#ff0000;fill-opacity:1;stroke:none;stroke-width:1.2446"
       d="m -88.242165,-15.692342 v 3.04787 h -3.30212 v 3.36518 h -3.04788 v 6.35 h 3.04788 v 6.35 h -3.04788 v 6.35 h 3.04788 v 6.35 h -3.04788 v 6.35 h 3.04788 v 6.35 h -3.04788 v 6.35 h 3.04788 v 2.98483 h 3.30212 v 3.04787 h 6.35 v -3.04787 h 6.35 v 3.04787 h 6.349997 v -3.04787 h 6.35 v 3.04787 h 6.35 v -3.04787 h 6.35 v 3.04787 h 6.35 v -3.04787 h 6.35001 v 3.04787 h 6.35 v -3.04787 h 6.35 v 3.04787 h 6.34999 v -3.04787 h 6.349999 v 3.04787 h 6.35001 v -3.04787 h 6.35 v 3.04787 h 6.350001 v -3.04787 h 6.35 v 3.04787 h 6.349999 v -3.04787 h 6.35001 v 3.04787 h 6.35 v -3.04787 h 3.30213 v -2.98483 h 3.04787 v -6.35 h -3.04787 v -6.35 h 3.04787 v -6.35 h -3.04787 v -6.35 h 3.04787 v -6.35 h -3.04787 v -6.35 h 3.04787 v -6.35 h -3.04787 v -3.36518 h -3.30213 v -3.04787 h -6.35 v 3.04787 h -6.35001 v -3.04787 h -6.349999 v 3.04787 h -6.35 v -3.04787 H 0.657841 v 3.04787 h -6.35 v -3.04787 h -6.35001 v 3.04787 h -6.349999 v -3.04787 h -6.34999 v 3.04787 h -6.35 v -3.04787 h -6.35 v 3.04787 h -6.35001 v -3.04787 h -6.35 v 3.04787 h -6.35 v -3.04787 h -6.35 v 3.04787 h -6.35 v -3.04787 h -6.349997 v 3.04787 h -6.35 v -3.04787 z m -3.34657,57.21304 v 0.0636 h 0.0444 v -0.0636 z" />
    <path
       id="path1859"
       style="fill:#0000ff;fill-opacity:1;stroke:none;stroke-width:0;stroke-dasharray:none"
       d="M 44.980716 -15.692582 L 44.980716 -11.882479 L 41.93284 -11.882479 L 41.93284 -5.532479 L 44.980716 -5.532479 L 44.980716 0.81752099 L 41.93284 0.81752099 L 41.93284 7.167521 L 44.980716 7.167521 L 44.980716 13.517521 L 41.93284 13.517521 L 41.93284 19.867521 L 44.980716 19.867521 L 44.980716 26.217521 L 41.93284 26.217521 L 41.93284 32.567521 L 44.980716 32.567521 L 44.980716 38.917521 L 41.93284 38.917521 L 41.93284 45.267521 L 44.980716 45.267521 L 44.980716 51.617521 L 41.93284 51.617521 L 41.93284 57.967521 L 44.980716 57.967521 L 44.980716 64.317521 L 41.93284 64.317521 L 41.93284 70.667521 L 44.980716 70.667521 L 44.980716 77.017521 L 41.93284 77.017521 L 41.93284 83.367521 L 44.980716 83.367521 L 44.980716 89.717521 L 41.93284 89.717521 L 41.93284 96.067521 L 44.980716 96.067521 L 44.980716 102.41804 L 41.93284 102.41804 L 41.93284 108.76804 L 44.980716 108.76804 L 44.980716 115.11804 L 41.93284 115.11804 L 41.93284 121.46804 L 44.980716 121.46804 L 44.980716 127.81804 L 41.93284 127.81804 L 41.93284 134.16804 L 44.980716 134.16804 L 44.980716 140.51804 L 41.93284 140.51804 L 41.93284 146.86804 L 44.980716 146.86804 L 44.980716 153.21804 L 41.93284 153.21804 L 41.93284 159.56804 L 44.980716 159.56804 L 44.980716 165.91804 L 41.93284 165.91804 L 41.93284 172.26804 L 44.980716 172.26804 L 44.980716 178.61804 L 41.93284 178.61804 L 41.93284 184.96804 L 44.980716 184.96804 L 44.980716 191.31804 L 41.93284 191.31804 L 41.93284 197.66804 L 44.980716 197.66804 L 44.980716 204.01804 L 41.93284 204.01804 L 41.93284 204.77975 L 41.93284 207.82762 L 48.28284 207.82762 L 48.28284 204.77975 L 54.63284 204.77975 L 54.63284 207.82762 L 60.98284 207.82762 L 60.98284 204.77975 L 67.33284 204.77975 L 67.33284 207.82762 L 73.68284 207.82762 L 73.68284 204.77975 L 80.03284 204.77975 L 80.03284 207.82762 L 86.38284 207.82762 L 86.38284 204.77975 L 92.73284 204.77975 L 92.73284 207.82762 L 99.08284 207.82762 L 99.08284 204.77975 L 105.43284 204.77975 L 105.43284 207.82762 L 111.78284 207.82762 L 111.78284 204.77975 L 118.13284 204.77975 L 118.13284 207.82762 L 124.48284 207.82762 L 124.48284 204.77975 L 130.83284 204.77975 L 130.83284 207.82762 L 137.18284 207.82762 L 137.18284 204.77975 L 143.53284 204.77975 L 143.53284 207.82762 L 149.88284 207.82762 L 149.88284 204.77975 L 156.23284 204.77975 L 156.23284 207.82762 L 162.58284 207.82762 L 162.58284 204.77975 L 168.93284 204.77975 L 168.93284 207.82762 L 172.23496 207.82762 L 172.23496 204.01804 L 175.28284 204.01804 L 175.28284 197.66804 L 172.23496 197.66804 L 172.23496 191.31804 L 175.28284 191.31804 L 175.28284 184.96804 L 172.23496 184.96804 L 172.23496 178.61804 L 175.28284 178.61804 L 175.28284 172.26804 L 172.23496 172.26804 L 172.23496 165.91804 L 175.28284 165.91804 L 175.28284 159.56804 L 172.23496 159.56804 L 172.23496 153.21804 L 175.28284 153.21804 L 175.28284 146.86804 L 172.23496 146.86804 L 172.23496 140.51804 L 175.28284 140.51804 L 175.28284 134.16804 L 172.23496 134.16804 L 172.23496 127.81804 L 175.28284 127.81804 L 175.28284 121.46804 L 172.23496 121.46804 L 172.23496 115.11804 L 175.28284 115.11804 L 175.28284 108.76804 L 172.23496 108.76804 L 172.23496 102.41804 L 175.28284 102.41804 L 175.28284 96.067521 L 172.23496 96.067521 L 172.23496 89.717521 L 175.28284 89.717521 L 175.28284 83.367521 L 172.23496 83.367521 L 172.23496 77.017521 L 175.28284 77.017521 L 175.28284 70.667521 L 172.23496 70.667521 L 172.23496 64.317521 L 175.28284 64.317521 L 175.28284 57.967521 L 172.23496 57.967521 L 172.23496 51.617521 L 175.28284 51.617521 L 175.28284 45.267521 L 172.23496 45.267521 L 172.23496 38.917521 L 175.28284 38.917521 L 175.28284 32.567521 L 172.23496 32.567521 L 172.23496 26.217521 L 175.28284 26.217521 L 175.28284 19.867521 L 172.23496 19.867521 L 172.23496 13.517521 L 175.28284 13.517521 L 175.28284 7.167521 L 172.23496 7.167521 L 172.23496 0.81752099 L 175.28284 0.81752099 L 175.28284 -5.532479 L 172.23496 -5.532479 L 172.23496 -11.882479 L 175.28284 -11.882479 L 175.28284 -12.644706 L 175.28284 -15.692582 L 168.93284 -15.692582 L 168.93284 -12.644706 L 162.58284 -12.644706 L 162.58284 -15.692582 L 156.23284 -15.692582 L 156.23284 -12.644706 L 149.88284 -12.644706 L 149.88284 -15.692582 L 143.53284 -15.692582 L 143.53284 -12.644706 L 137.18284 -12.644706 L 137.18284 -15.692582 L 130.83284 -15.692582 L 130.83284 -12.644706 L 124.48284 -12.644706 L 124.48284 -15.692582 L 118.13284 -15.692582 L 118.13284 -12.644706 L 111.78284 -12.644706 L 111.78284 -15.692582 L 105.43284 -15.692582 L 105.43284 -12.644706 L 99.08284 -12.644706 L 99.08284 -15.692582 L 92.73284 -15.692582 L 92.73284 -12.644706 L 86.38284 -12.644706 L 86.38284 -15.692582 L 80.03284 -15.692582 L 80.03284 -12.644706 L 73.68284 -12.644706 L 73.68284 -15.692582 L 67.33284 -15.692582 L 67.33284 -12.644706 L 60.98284 -12.644706 L 60.98284 -15.692582 L 54.63284 -15.692582 L 54.63284 -12.644706 L 48.28284 -12.644706 L 48.28284 -15.692582 L 44.980716 -15.692582 z M 108.60784 176.07762 A 6.3499999 6.3499999 0 0 1 114.95784 182.42762 A 6.3499999 6.3499999 0 0 1 108.60784 188.77762 A 6.3499999 6.3499999 0 0 1 102.25784 182.42762 A 6.3499999 6.3499999 0 0 1 108.60784 176.07762 z " />
    <path
       id="path1869"
       style="fill:#ff0000;fill-opacity:1;stroke:none;stroke-width:1.2446"
       d="m 232.3057,207.82787 v -3.04788 -0.76223 h 3.04788 v -6.35 h -3.04788 v -6.35 h 3.04788 v -6.35 h -3.04788 v -6.35 h 3.04788 v -6.35 h -3.04788 v -6.35 h 3.04788 v -6.35 h -3.04788 v -6.35 h 3.04788 v -6.35 h -3.04788 v -6.35 h 3.04788 v -6.34999 h -3.04788 v -6.35 h 3.04788 v -6.35 h -3.04788 v -6.35 h 3.04788 v -6.35 h -3.04788 v -6.35 h 3.04788 v -6.350002 h -3.04788 v -6.35 h 3.04788 v -6.35 h -3.04788 v -6.35 h 3.04788 v -6.35 h -3.04788 v -6.35 h 3.04788 v -6.35 h -3.04788 v -6.35 h 3.04788 v -6.35 h -3.04788 v -6.35 h 3.04788 v -6.35 h -3.04788 v -6.35 h 3.04788 v -6.35 h -3.04788 v -6.35 h 3.04788 v -6.35 h -3.04788 v -6.35 h 3.04788 v -6.35 h -3.04788 v -6.35 h 3.04788 v -3.81011 h -6.22288 v 3.04788 h -6.35 v -3.04788 h -6.35 v 3.04788 h -6.35 v -3.04788 h -6.35 v 3.04788 h -6.35 v -3.04788 h -6.35 v 3.04788 h -6.35 v -3.04788 h -3.175 v 3.04788 0.76223 h -3.04787 v 6.35 h 3.04787 v 6.35 h -3.04787 v 6.35 h 3.04787 v 6.35 h -3.04787 v 6.35 h 3.04787 v 6.35 h -3.04787 v 6.35 h 3.04787 v 6.35 h -3.04787 v 6.35 h 3.04787 v 6.35 h -3.04787 v 6.35 h 3.04787 v 6.35 h -3.04787 v 6.35 h 3.04787 v 6.35 h -3.04787 v 6.35 h 3.04787 v 6.35 h -3.04787 v 6.35 h 3.04787 v 6.350002 h -3.04787 v 6.35 h 3.04787 v 6.35 h -3.04787 v 6.35 h 3.04787 v 6.35 h -3.04787 v 6.35 h 3.04787 v 6.34999 h -3.04787 v 6.35 h 3.04787 v 6.35 h -3.04787 v 6.35 h 3.04787 v 6.35 h -3.04787 v 6.35 h 3.04787 v 6.35 h -3.04787 v 6.35 h 3.04787 v 6.35 h -3.04787 v 6.35 h 3.04787 v 6.35 h -3.04787 v 3.81011 h 6.22287 v -3.04788 h 6.35 v 3.04788 h 6.35 v -3.04788 h 6.35 v 3.04788 h 6.35 v -3.04788 h 6.35 v 3.04788 h 6.35 v -3.04788 h 6.35 v 3.04788 z" />
    <path
       id="path1887"
       style="fill:#ff0000;fill-opacity:1;stroke:none;stroke-width:1.2446"
       d="m 48.282833,211.00287 v 3.04787 h -3.30212 v 3.36518 h -3.04788 v 6.35 h 3.04788 v 6.35 h -3.04788 v 6.35 h 3.04788 v 6.35 h -3.04788 v 6.35 h 3.04788 v 6.35 h -3.04788 v 6.35 h 3.04788 v 2.98483 h 3.30212 v 3.04787 h 6.35 v -3.04787 h 6.349999 v 3.04787 h 6.349998 v -3.04787 h 6.349999 v 3.04787 h 6.350001 v -3.04787 h 6.35 v 3.04787 h 6.35 v -3.04787 h 6.35001 v 3.04787 h 6.35 v -3.04787 h 6.35 v 3.04787 h 6.34999 v -3.04787 h 6.35 v 3.04787 h 6.35001 v -3.04787 h 6.35 v 3.04787 h 6.35 v -3.04787 h 6.35 v 3.04787 h 6.35 v -3.04787 h 6.35001 v 3.04787 h 6.35 v -3.04787 h 3.30213 v -2.98483 h 3.04787 v -6.35 h -3.04787 v -6.35 h 3.04787 v -6.35 h -3.04787 v -6.35 h 3.04787 v -6.35 h -3.04787 v -6.35 h 3.04787 v -6.35 h -3.04787 v -3.36518 h -3.30213 v -3.04787 h -6.35 v 3.04787 h -6.35001 v -3.04787 h -6.35 v 3.04787 h -6.35 v -3.04787 h -6.35 v 3.04787 h -6.35 v -3.04787 h -6.35001 v 3.04787 h -6.35 v -3.04787 h -6.34999 v 3.04787 h -6.35 v -3.04787 h -6.35 v 3.04787 h -6.35001 v -3.04787 h -6.35 v 3.04787 h -6.35 v -3.04787 h -6.35 v 3.04787 h -6.35 v -3.04787 h -6.349997 v 3.04787 h -6.35 v -3.04787 z m -3.34657,57.21304 v 0.0636 h 0.0444 v -0.0636 z" />
  </g>
</svg>
